HIERARCHY
ROOT Hips
{
	OFFSET -3.958830 18.904000 13.208200
	CHANNELS 6 Xposition Yposition Zposition Zrotation Yrotation Xrotation 
	JOINT LHipJoint
	{
		OFFSET 0.000000 0.000000 0.000000
		CHANNELS 3 Zrotation Yrotation Xrotation
		JOINT LeftUpLeg
		{
			OFFSET 1.800000 -1.400000 0.085000
			CHANNELS 3 Zrotation Yrotation Xrotation
			JOINT LeftLeg
			{
				OFFSET 2.215000 -6.000000 0.000000
				CHANNELS 3 Zrotation Yrotation Xrotation
				JOINT LeftFoot
				{
					OFFSET 2.500000 -6.900000 0.000000
					CHANNELS 3 Zrotation Yrotation Xrotation
					JOINT LeftToeBase
					{
						OFFSET 0.200000 -0.500000 1.950000
						CHANNELS 3 Zrotation Yrotation Xrotation
						End Site
						{
							OFFSET 0.000000 0.000000 0.000000
						}
					}
				}
			}
		}
	}
	JOINT RHipJoint
	{
		OFFSET 0.000000 0.000000 0.000000
		CHANNELS 3 Zrotation Yrotation Xrotation
		JOINT RightUpLeg
		{
			OFFSET -1.800000 -1.400000 0.085000
			CHANNELS 3 Zrotation Yrotation Xrotation
			JOINT RightLeg
			{
				OFFSET -2.215000 -6.000000 0.000000
				CHANNELS 3 Zrotation Yrotation Xrotation
				JOINT RightFoot
				{
					OFFSET -2.500000 -6.900000 0.000000
					CHANNELS 3 Zrotation Yrotation Xrotation
					JOINT RightToeBase
					{
						OFFSET -0.200000 -0.500000 1.950000
						CHANNELS 3 Zrotation Yrotation Xrotation
						End Site
						{
							OFFSET 0.000000 0.000000 0.000000
						}
					}
				}
			}
		}
	}
	JOINT LowerBack
	{
		OFFSET 0.000000 0.000000 0.000000
		CHANNELS 3 Zrotation Yrotation Xrotation
		JOINT Spine
		{
			OFFSET -0.087000 1.940000 -0.288900
			CHANNELS 3 Zrotation Yrotation Xrotation
			JOINT Spine1
			{
				OFFSET 0.000000 1.950000 0.060000
				CHANNELS 3 Zrotation Yrotation Xrotation
				JOINT Neck
				{
					OFFSET 0.000000 0.000000 0.000000
					CHANNELS 3 Zrotation Yrotation Xrotation
					JOINT Neck1
					{
						OFFSET 0.000000 1.600000 0.340000
						CHANNELS 3 Zrotation Yrotation Xrotation
						JOINT Head
						{
							OFFSET 0.000000 1.667000 -0.240000
							CHANNELS 3 Zrotation Yrotation Xrotation
							End Site
							{
								OFFSET 0.000000 0.000000 0.000000
							}
						}
					}
				}
				JOINT LeftShoulder
				{
					OFFSET 0.000000 0.000000 0.000000
					CHANNELS 3 Zrotation Yrotation Xrotation
					JOINT LeftArm
					{
						OFFSET 2.700000 1.550000 -0.730000
						CHANNELS 3 Zrotation Yrotation Xrotation
						JOINT LeftForeArm
						{
							OFFSET 5.450000 0.000000 0.000000
							CHANNELS 3 Zrotation Yrotation Xrotation
							JOINT LeftHand
							{
								OFFSET 3.450000 0.000000 0.000000
								CHANNELS 3 Zrotation Yrotation Xrotation
								JOINT LeftHandIndex1
								{
									OFFSET 0.750000 0.000000 0.000000
									CHANNELS 3 Zrotation Yrotation Xrotation
									End Site
									{
										OFFSET 0.000000 0.000000 0.000000
									}
								}
							}
						}
					}
				}
				JOINT RightShoulder
				{
					OFFSET 0.000000 0.000000 0.000000
					CHANNELS 3 Zrotation Yrotation Xrotation
					JOINT RightArm
					{
						OFFSET -2.700000 1.550000 -0.730000
						CHANNELS 3 Zrotation Yrotation Xrotation
						JOINT RightForeArm
						{
							OFFSET -5.450000 0.000000 0.000000
							CHANNELS 3 Zrotation Yrotation Xrotation
							JOINT RightHand
							{
								OFFSET -3.450000 0.000000 0.000000
								CHANNELS 3 Zrotation Yrotation Xrotation
								JOINT RightHandIndex1
								{
									OFFSET -0.750000 0.000000 0.000000
									CHANNELS 3 Zrotation Yrotation Xrotation
									End Site
									{
										OFFSET 0.000000 0.000000 0.000000
									}
								}
							}
						}
					}
				}
			}
		}
	}
}
MOTION
Frames: 13
Frame Time: 0.016667
0.116640 12.006310 1.773840 61.696759 -29.575241 -59.693141 -16.242137 7.159500 8.385345 41.855416 -5.306234 -63.298032 -60.581477 61.392915 59.853609 3.131679 16.465726 -0.458553 0.403840 0.320010 0.373540 18.568518 -4.341659 5.051372 1.981061 19.674381 -66.590302 8.705463 -13.750435 57.894576 -1.320395 -8.812489 1.222282 0.254880 -0.064820 0.143800 -3.032130 -2.417958 -11.705901 -12.285790 3.312862 58.571234 -2.045707 4.310509 9.043312 -3.164880 -4.671930 -12.512877 -14.710519 0.595070 39.865679 -5.427980 1.547310 -8.132640 -18.740121 -31.088618 -2.088225 2.601629 -37.929585 -7.795708 110.511754 -40.527023 -57.407272 -3.776854 2.555109 0.218000 0.035010 0.112000 0.061840 24.698310 32.437429 15.747816 25.188603 4.742020 -0.890240 -4.409165 -2.816444 -0.209908 2.672921 -1.353834 -0.024660 0.069790 -0.113890 -0.149810 
0.097000 12.102170 1.699350 66.335948 -31.195049 -61.512145 -16.223648 7.338508 8.348044 41.529857 -6.620577 -62.107351 -44.147037 54.175657 69.222880 3.214981 17.996918 -0.902893 0.406980 0.313450 0.398030 18.556079 -4.603822 4.834834 2.774391 19.074047 -61.947970 10.316536 -12.195815 51.227398 -1.056231 -7.456843 1.641963 0.249160 -0.085450 0.147950 -2.975396 -2.420477 -11.598071 -13.873713 4.078725 57.265134 -2.266575 4.674804 9.616707 -3.025638 -4.337661 -13.310766 -14.050985 0.228058 40.197036 -5.966620 2.071140 -8.973830 -18.118053 -33.435900 -1.962445 2.341625 -39.088523 -7.506877 113.960422 -40.082917 -60.738283 -3.787832 2.562700 0.247370 0.025710 0.129250 0.049700 23.881884 34.716083 16.335578 24.890418 6.532823 -0.796749 -5.409691 -2.717529 -0.149044 2.674736 -1.349514 -0.031210 0.067950 -0.113230 -0.170790 
0.050550 12.209480 1.598500 70.841559 -33.143889 -63.678489 -16.145265 7.868719 7.839897 38.516624 -7.524008 -59.981572 -25.073854 42.594787 77.991564 2.930002 18.402912 -1.141193 0.417810 0.323100 0.407620 18.558238 -5.019857 4.802049 3.442903 19.185867 -57.588870 11.633409 -11.372915 47.635577 -0.939765 -6.772032 1.870999 0.260040 -0.083760 0.148040 -3.021341 -2.406469 -11.330825 -15.064794 4.853219 57.012437 -2.457541 5.206641 9.730909 -3.076286 -5.002195 -13.700131 -14.930445 0.066295 39.078286 -6.247340 1.870910 -10.356650 -19.294945 -34.864788 -2.280438 1.662131 -40.884708 -6.706765 117.392492 -39.639468 -63.606979 -3.803896 2.564193 0.263320 0.022350 0.133940 0.050200 25.266058 36.476739 16.733536 22.226762 8.529984 -0.915217 -6.169793 -3.774313 -0.124042 2.702292 -1.322616 -0.039480 0.088420 -0.109640 -0.176670 
-0.008560 12.346420 1.531560 73.620316 -34.238463 -66.514532 -15.907196 9.123533 6.661395 30.053895 -8.888640 -56.029728 -8.412639 24.590281 75.063232 1.798296 15.222452 -0.566763 0.440360 0.339310 0.450400 18.550699 -6.014989 4.831145 2.371518 18.026237 -52.703187 15.173019 -11.331309 42.799183 -0.852345 -6.177876 2.054161 0.271590 -0.117870 0.148690 -3.239777 -2.357192 -10.652149 -14.741823 4.414668 58.463653 -3.841913 4.894168 10.374110 -2.748468 -5.696613 -14.134776 -15.895865 0.475362 37.731518 -7.257260 2.340740 -13.050220 -20.642022 -37.167247 -2.757593 1.283283 -42.813720 -6.791833 118.343407 -39.080888 -63.386359 -3.819081 2.521908 0.309460 -0.004490 0.166010 0.038090 25.921311 38.439251 17.570002 20.007971 9.695893 -0.872574 -5.697329 -3.404906 -0.130888 2.683931 -1.273704 -0.049080 0.104430 -0.114460 -0.201430 
-0.099000 12.459590 1.463880 73.767324 -36.110951 -68.258285 -15.580532 10.826889 5.070107 18.928549 -8.742115 -49.249290 12.431555 4.540785 61.427359 0.628456 10.050189 0.870697 0.450640 0.355700 0.450740 18.514532 -7.238072 5.053025 3.574356 17.433845 -46.641210 18.097023 -11.059833 38.451747 -0.784782 -5.683718 2.240387 0.268470 -0.130120 0.139460 -3.557314 -2.279353 -9.754698 -12.074697 2.241269 60.001967 -4.991551 4.377571 11.702163 -2.537592 -6.886892 -15.050796 -18.249408 0.428676 37.573977 -7.900470 1.633900 -13.680140 -21.877345 -39.310437 -2.746473 1.475925 -43.205416 -7.215171 119.751530 -38.097927 -63.093809 -3.821264 2.521613 0.311140 -0.023530 0.180130 0.052380 26.908430 40.359164 18.572401 17.726084 10.349415 -1.128199 -6.259401 -3.649993 -0.099272 2.711647 -1.248963 -0.036640 0.116520 -0.128910 -0.188190 
-0.156230 12.523760 1.451330 73.336022 -36.934817 -68.363415 -15.416591 11.700700 4.231975 11.215514 -7.537445 -44.716124 23.300849 -2.337084 40.238920 0.091260 6.454014 2.092154 0.469260 0.394540 0.427480 18.483133 -7.830260 5.239708 5.462693 17.046558 -44.324894 16.742330 -10.499871 38.282091 -0.748205 -5.531595 2.303238 0.293510 -0.107560 0.139050 -3.722498 -2.361942 -9.223634 -10.166173 0.308034 60.495698 -5.331837 3.138938 12.279741 -2.722891 -7.662098 -14.747393 -19.097694 0.559267 35.347915 -7.289540 1.210930 -14.173610 -22.289345 -39.699854 -2.703560 2.029689 -44.345459 -7.250351 121.391883 -36.606924 -62.002137 -3.849422 2.557601 0.277050 -0.014090 0.166540 0.081810 27.668565 40.177995 18.540693 15.253270 10.674742 -1.094672 -5.375073 -2.573717 -0.223235 2.683459 -1.258178 -0.024500 0.122530 -0.144440 -0.159960 
-0.213520 12.551450 1.456500 73.615465 -37.220547 -66.836825 -15.410862 11.960305 3.856433 7.528925 -6.508511 -42.397932 28.663240 -3.031884 25.910868 -0.115797 4.750898 2.718945 0.512000 0.471110 0.417930 18.446644 -7.858992 5.385451 5.580373 17.493105 -44.534900 19.894286 -12.381119 40.012700 -0.934022 -6.328416 2.047661 0.354830 -0.079440 0.144430 -3.710818 -2.589326 -9.105579 -9.368422 -0.699723 58.056403 -5.244786 2.490945 12.948823 -3.154058 -7.185618 -13.762240 -17.589534 0.282449 34.120043 -6.534600 1.148930 -14.152880 -22.870401 -39.197450 -2.257892 2.691622 -45.632694 -6.549959 123.044376 -35.083422 -60.371176 -3.876104 2.606486 0.226140 0.017160 0.149430 0.118020 28.875402 38.865938 17.466692 14.383088 11.976808 -1.237878 -6.168781 -2.039376 -0.371697 2.670823 -1.339619 -0.013700 0.126950 -0.171860 -0.134170 
-0.263340 12.594290 1.462130 74.354255 -36.892979 -66.281594 -15.404337 12.060600 3.843887 6.848878 -6.333706 -42.051348 26.976421 -2.391251 23.491836 -0.241331 4.238220 2.890655 0.589180 0.570900 0.450690 18.428290 -7.997954 5.252170 6.608573 16.540613 -43.471157 16.916135 -9.920150 36.206794 -0.698949 -5.205287 2.395344 0.426940 -0.091990 0.158640 -3.660357 -2.708634 -8.977656 -9.253747 -1.188533 56.932427 -4.987926 1.850224 13.552196 -3.679116 -7.130383 -12.717232 -16.838560 -0.676574 32.326594 -6.163830 0.161640 -16.297670 -22.386240 -38.342616 -2.320656 4.167984 -46.880204 -6.756255 123.928389 -33.649989 -58.502096 -3.874448 2.643708 0.220130 0.012060 0.166960 0.138590 29.252467 37.812750 16.489361 13.263420 13.034188 -1.240239 -5.923112 -1.472652 -0.480793 2.636999 -1.369169 0.005720 0.140110 -0.198330 -0.126090 
-0.326370 12.658550 1.445320 77.240457 -37.442014 -67.453789 -15.405739 12.000511 4.005044 11.306652 -6.725934 -42.935618 26.577999 -3.433135 36.911337 0.030206 6.236490 2.165791 0.612260 0.602190 0.432400 18.447122 -8.067568 5.032773 7.922609 15.987208 -40.793113 14.604704 -7.230885 29.786052 -0.416755 -3.802467 2.874506 0.456730 -0.073150 0.153600 -3.660625 -2.506025 -8.988400 -9.941243 -0.741158 56.947150 -4.669465 2.189019 12.817040 -4.350087 -7.910819 -12.191125 -17.809693 -0.958581 31.106944 -4.426950 -0.866860 -17.300030 -23.380242 -37.357907 -2.471750 5.125641 -46.885252 -6.704997 125.160673 -33.787254 -59.502871 -3.849985 2.677187 0.221370 0.004070 0.156050 0.151140 31.633423 37.199901 16.190877 11.634490 13.171670 -2.092415 -7.445790 -0.284058 -0.631591 2.602166 -1.413909 0.003850 0.161840 -0.192690 -0.112280 
-0.357910 12.720370 1.397180 79.851064 -37.727465 -68.122823 -15.413410 11.733918 4.297498 15.127419 -6.855465 -44.378406 19.104711 -0.345930 48.775849 0.199235 7.796574 1.608844 0.636460 0.636810 0.426300 18.486442 -8.042782 4.871956 9.203368 15.581917 -39.488232 12.225283 -5.686553 26.418922 -0.282260 -3.034103 3.147848 0.476910 -0.064980 0.153430 -3.716266 -2.184629 -9.067312 -10.249907 -0.216376 57.300664 -4.678340 2.441765 11.932269 -4.808816 -8.587827 -11.970681 -18.380782 -1.479572 29.472383 -3.426910 -1.757480 -18.810080 -23.476273 -36.601662 -2.714780 7.529975 -46.648867 -7.579878 126.132114 -33.304885 -59.328876 -3.820144 2.715039 0.226930 -0.008360 0.162660 0.166240 32.732693 36.985383 16.061263 10.939003 13.411958 -2.543041 -8.491184 0.174329 -0.698976 2.588954 -1.434435 0.010700 0.184520 -0.195870 -0.097300 
-0.359340 12.766140 1.364160 82.287387 -37.030337 -67.798426 -15.540373 11.099935 4.989874 18.874944 -7.498978 -47.642410 7.555730 7.042962 58.151292 0.385470 9.727024 0.913400 0.698110 0.723930 0.443540 18.495649 -7.713182 4.560496 9.998615 14.861842 -39.611904 9.368460 -4.575262 24.579759 -0.202962 -2.504052 3.306911 0.545260 -0.076630 0.160820 -3.534794 -2.299447 -9.324520 -12.151409 1.357052 56.391110 -3.430732 3.000667 11.638762 -5.680573 -8.565442 -11.038779 -17.453459 -2.187524 27.148771 -1.965140 -2.463180 -21.974680 -22.081953 -34.812701 -3.331459 9.514362 -48.083515 -8.225810 126.052683 -32.320930 -57.440644 -3.811753 2.729587 0.246080 -0.024410 0.178190 0.160120 32.848041 35.803279 15.285465 10.380616 13.640547 -2.630140 -8.584756 1.315241 -0.793700 2.520204 -1.446763 0.018390 0.208770 -0.188770 -0.098330 
-0.326520 12.723710 1.340640 84.808911 -36.447234 -67.260601 -15.796880 10.210380 5.979920 24.731571 -7.270151 -51.600030 -6.646408 17.771368 62.413860 0.923915 12.399180 0.111775 0.674440 0.689410 0.440190 18.454189 -7.034119 4.192554 10.762146 14.563579 -40.142148 8.257978 -3.908194 22.410423 -0.120387 -2.104024 3.458726 0.535720 -0.049860 0.155360 -3.072943 -2.847019 -9.854241 -15.223755 3.994767 52.853005 -1.384396 4.268181 12.431895 -5.915194 -6.972608 -10.989239 -15.256502 -2.464322 29.076050 -1.863820 -2.273540 -19.805260 -19.372605 -33.812920 -3.445460 9.249543 -48.077010 -8.303993 123.659842 -31.264124 -54.480162 -3.838270 2.715867 0.232810 0.001410 0.158860 0.161540 30.354274 35.381723 14.972096 11.969410 14.296779 -2.000587 -7.999705 1.198667 -0.778105 2.523449 -1.436099 -0.001600 0.216210 -0.184310 -0.103480 
-0.342250 12.712870 1.357130 84.061682 -35.274894 -66.546930 -15.950519 9.678705 6.693877 28.331675 -7.717084 -53.325893 -18.630017 25.438482 61.361836 1.461070 14.080703 -0.286750 0.648780 0.665830 0.423120 18.411487 -6.699234 3.830497 9.939671 13.653067 -40.480737 8.028410 -3.861396 21.763467 -0.073798 -2.031318 3.506987 0.525140 -0.017650 0.142960 -2.753598 -3.238163 -10.145581 -16.219360 4.623328 51.470003 0.397186 4.294740 13.229276 -6.180453 -5.948534 -10.753069 -14.046495 -2.792906 30.668039 -2.251240 -2.338390 -16.937630 -18.546119 -33.055073 -3.167520 9.476933 -48.386405 -8.414329 121.699773 -30.108944 -50.916061 -3.880692 2.715534 0.182060 0.036820 0.126040 0.174500 29.929439 34.457884 14.629294 11.844748 13.934951 -1.970419 -8.127763 1.277463 -0.845284 2.535927 -1.462741 -0.006450 0.214190 -0.192900 -0.089910 
